<?xml version="1.0" encoding="iso-8859-1"?> <!-- Generator: Adobe Illustrator 19.0.0, SVG Export Plug-In . SVG Version: 6.00 Build 0)  --> <svg version="1.1" id="Layer_1" xmlns="http://www.w3.org/2000/svg" xmlns:xlink="http://www.w3.org/1999/xlink" x="0px" y="0px" viewBox="0 0 512.002 512.002" style="enable-background:new 0 0 512.002 512.002;" xml:space="preserve"> <g> <g> <path d="M147.355,316.311l-126.67,41.166c36.257,84.407,116.593,145.388,212.042,153.991l0.002-133.132L147.355,316.311z"/> </g> </g> <g> <g> <path d="M87.318,63.978C33.8,110.9,0,179.764,0,256.533C0,276,2.185,294.955,6.301,313.177l126.731-41.168l32.583-100.276 L87.318,63.978z"/> </g> </g> <g> <g> <path d="M256,0.533c-47.886,0-92.694,13.161-131.025,36.045l78.327,107.818h105.396l78.325-107.821 C348.691,13.693,303.884,0.533,256,0.533z"/> </g> </g> <g> <g> <path d="M364.643,316.313l-85.363,62.017l0.008,133.139c95.443-8.609,175.771-69.589,212.027-153.991L364.643,316.313z"/> </g> </g> <g> <g> <path d="M424.682,63.978L346.387,171.73l32.582,100.278l126.732,41.168c4.115-18.223,6.301-37.177,6.301-56.644 C512,179.766,478.2,110.9,424.682,63.978z"/> </g> </g> <g> </g> <g> </g> <g> </g> <g> </g> <g> </g> <g> </g> <g> </g> <g> </g> <g> </g> <g> </g> <g> </g> <g> </g> <g> </g> <g> </g> <g> </g> </svg>